<?xml version="1.0" standalone="no"?>
<!DOCTYPE svg PUBLIC "-//W3C//DTD SVG 20010904//EN"
 "http://www.w3.org/TR/2001/REC-SVG-20010904/DTD/svg10.dtd">
<svg version="1.0" xmlns="http://www.w3.org/2000/svg"
 width="512.000000pt" height="512.000000pt" viewBox="0 0 1024.000000 1024.000000"
 preserveAspectRatio="xMidYMid meet">

<defs>
  <linearGradient id="netdropGradient" x1="0%" y1="0%" x2="100%" y2="100%">
    <stop offset="0%" style="stop-color:#2563EB;stop-opacity:1" /> <!-- Blue-600 -->
    <stop offset="100%" style="stop-color:#4F46E5;stop-opacity:1" /> <!-- Indigo-600 -->
  </linearGradient>
  <filter id="softGlow" x="-20%" y="-20%" width="140%" height="140%">
      <feGaussianBlur stdDeviation="15" result="blur" />
      <feComposite in="SourceGraphic" in2="blur" operator="over" />
  </filter>
</defs>

<g transform="translate(0.000000,1024.000000) scale(0.100000,-0.100000)"
fill="url(#netdropGradient)" stroke="none">
<path d="M4931 7865 c-128 -32 -266 -93 -363 -162 -81 -58 -87 -63 -171 -143
-151 -143 -290 -344 -425 -615 -93 -186 -201 -441 -226 -536 -8 -30 -24 -85
-35 -124 -12 -38 -29 -95 -37 -125 -25 -91 -31 -100 -61 -100 -16 0 -59 -9
-98 -20 -38 -11 -104 -29 -145 -40 -146 -40 -444 -156 -604 -236 -234 -118
-479 -292 -629 -449 -120 -124 -223 -300 -269 -461 -20 -68 -23 -102 -23 -239
0 -136 4 -172 23 -239 60 -210 199 -410 422 -607 90 -80 302 -218 462 -301
183 -96 705 -280 865 -305 28 -4 34 -11 43 -42 94 -355 157 -527 291 -798 158
-319 280 -495 463 -670 240 -229 453 -314 756 -299 151 7 238 29 369 96 194
97 395 291 557 535 110 164 269 473 336 650 22 58 113 341 130 400 30 111 34
120 59 123 13 2 29 7 34 12 6 4 27 10 47 14 91 16 376 111 598 199 200 80 476
243 630 373 157 132 313 322 375 456 71 156 78 188 83 374 3 159 2 179 -21
266 -33 121 -60 182 -132 293 -125 193 -342 382 -640 557 -51 31 -208 109
-255 128 -25 9 -85 34 -135 55 -131 54 -485 166 -566 179 -43 8 -56 21 -65 65
-4 17 -11 34 -15 37 -5 3 -9 14 -9 25 0 36 -120 391 -174 514 -48 110 -192
396 -227 450 -157 245 -265 373 -434 511 -59 49 -217 135 -301 165 -139 48
-360 64 -483 34z m339 -293 c14 -5 43 -15 65 -22 82 -25 247 -143 352 -251
122 -126 230 -290 358 -549 79 -159 236 -582 222 -597 -3 -2 -40 1 -84 8 -149
22 -189 27 -348 43 -88 9 -194 20 -235 26 -283 36 -631 33 -1050 -9 -47 -5
-137 -14 -200 -21 -63 -6 -140 -15 -170 -20 -30 -5 -88 -14 -129 -20 -40 -6
-76 -9 -79 -5 -6 5 73 248 103 320 7 17 27 66 45 110 75 185 235 475 333 603
105 136 257 269 377 330 116 58 181 72 305 68 61 -2 121 -8 135 -14z m375
-1627 c195 -21 281 -33 364 -49 42 -8 131 -24 198 -37 l121 -22 20 -91 c44
-195 67 -350 91 -611 16 -162 31 -500 27 -580 -2 -38 -6 -140 -10 -225 -10
-218 -31 -416 -72 -655 -36 -216 -45 -260 -52 -272 -11 -17 -232 -59 -437 -83
-99 -12 -290 -26 -425 -32 -267 -11 -783 -4 -950 12 -299 31 -618 81 -630 100
-4 7 -10 38 -14 69 -3 31 -15 112 -25 181 -48 310 -71 585 -74 880 -2 281 2
455 14 555 5 39 18 160 29 270 18 169 63 472 73 481 1 1 43 10 92 18 50 9 122
22 160 30 63 12 264 40 465 64 41 5 120 10 175 11 55 1 102 5 105 8 9 10 624
-7 755 -22z m1077 -209 c57 -10 325 -100 398 -134 36 -16 76 -33 90 -37 42
-13 241 -116 315 -163 145 -93 294 -213 371 -300 105 -118 149 -190 184 -300
25 -77 30 -109 30 -190 0 -113 -13 -167 -65 -277 -48 -101 -92 -160 -197 -261
-99 -97 -180 -160 -307 -238 -153 -94 -440 -232 -551 -264 -19 -6 -66 -22
-105 -36 -38 -15 -105 -35 -148 -45 -91 -22 -95 -19 -78 56 21 92 43 229 51
323 41 453 49 645 39 925 -10 302 -18 422 -30 459 -5 16 -9 45 -9 65 0 48 -17
174 -41 296 -24 129 -25 149 -1 137 9 -5 34 -12 54 -16z m-3132 2 c0 -7 -7
-40 -14 -73 -8 -33 -21 -123 -30 -200 -9 -77 -21 -165 -26 -195 -14 -80 -28
-303 -36 -560 -9 -333 23 -764 82 -1093 14 -77 23 -141 21 -143 -5 -6 -93 14
-122 27 -11 4 -81 28 -155 53 -232 76 -509 207 -675 321 -212 144 -357 295
-439 455 -54 106 -68 162 -68 287 0 165 59 304 200 467 200 230 617 478 1007
596 39 12 77 24 85 27 30 12 135 41 153 42 9 1 17 -5 17 -11z m640 -2699 c542
-70 1348 -60 1988 26 43 6 52 5 52 -8 0 -21 -83 -254 -136 -377 -57 -137 -216
-426 -310 -565 -78 -116 -179 -228 -279 -312 -222 -185 -479 -218 -719 -93
-115 60 -253 188 -368 340 -62 83 -188 287 -188 306 0 7 -4 14 -8 16 -17 7
-152 289 -200 418 -82 222 -94 259 -86 271 4 7 24 9 58 4 28 -4 116 -15 196
-26z"/>
<path d="M4538 5799 c-10 -6 -18 -22 -18 -37 0 -21 29 -56 137 -164 l138 -138
-180 -181 c-99 -99 -227 -226 -284 -282 -165 -163 -244 -279 -283 -412 -19
-67 -22 -103 -22 -220 1 -125 4 -148 28 -220 36 -105 84 -191 147 -259 57 -63
86 -71 117 -31 15 19 20 46 25 132 12 241 44 289 489 733 188 187 346 340 352
340 7 0 72 -61 146 -135 73 -74 141 -135 150 -135 9 0 27 11 39 24 21 23 24
38 32 183 16 313 30 528 34 543 8 27 9 246 1 258 -9 16 -1022 17 -1048 1z"/>
<path d="M5931 5381 c-14 -14 -20 -41 -25 -126 -9 -126 -30 -202 -87 -305 -36
-65 -90 -123 -400 -435 l-358 -360 -125 127 c-145 147 -167 164 -194 149 -39
-21 -44 -39 -53 -198 -5 -87 -13 -223 -19 -303 -27 -416 -30 -474 -25 -491 6
-18 26 -19 529 -19 393 0 525 3 534 12 32 32 14 61 -118 193 -71 71 -130 136
-130 144 0 8 134 150 298 315 164 166 312 321 329 346 184 272 174 618 -26
883 -31 42 -86 87 -105 87 -3 0 -14 -8 -25 -19z"/>
<path d="M6091 7753 c8 -10 20 -24 27 -31 34 -37 153 -195 216 -289 l71 -106
123 -71 c403 -234 618 -417 952 -816 96 -114 216 -296 295 -448 21 -41 52 -84
69 -96 140 -102 237 -180 317 -253 51 -48 94 -82 96 -76 4 10 -35 121 -94 273
-73 188 -301 593 -386 687 -25 28 -16 53 19 53 14 0 74 23 132 51 129 62 184
115 242 232 53 107 69 186 65 312 -5 122 -30 209 -83 291 -175 267 -504 350
-780 196 -66 -37 -206 -175 -243 -238 -17 -30 -32 -75 -36 -103 -3 -28 -11
-51 -17 -51 -6 0 -42 21 -81 47 -84 55 -162 101 -354 207 -46 25 -90 46 -97
46 -8 0 -14 5 -14 10 0 6 -4 10 -10 10 -5 0 -35 12 -67 26 -106 49 -217 95
-297 125 -65 24 -76 26 -65 12z"/>
<path d="M4100 7746 c-123 -46 -156 -60 -165 -66 -5 -5 -46 -22 -90 -40 -118
-46 -415 -202 -517 -271 -32 -22 -60 -39 -64 -39 -3 0 -25 -13 -49 -30 -56
-38 -65 -38 -65 4 0 107 -167 302 -323 377 -167 79 -332 77 -504 -6 -160 -78
-263 -208 -310 -388 -23 -91 -14 -260 20 -348 63 -167 122 -235 263 -304 52
-25 113 -49 136 -53 23 -4 43 -12 44 -17 2 -6 -23 -46 -55 -89 -108 -146 -296
-483 -331 -594 -5 -15 -25 -70 -45 -122 -57 -151 -66 -181 -63 -192 2 -6 46
28 98 75 87 81 149 131 290 234 47 35 62 55 104 137 27 53 55 104 63 113 7 10
41 61 74 113 103 161 311 413 450 545 201 191 381 320 725 516 24 14 57 43 72
65 116 170 264 364 284 372 10 5 11 22 1 22 -5 -1 -24 -7 -43 -14z"/>
<path d="M1980 3664 c0 -16 66 -215 99 -299 74 -189 226 -465 338 -613 35 -46
63 -85 63 -87 0 -2 -30 -13 -67 -25 -159 -52 -277 -146 -345 -276 -51 -96 -71
-179 -71 -294 0 -291 190 -521 473 -576 202 -38 362 12 522 165 95 90 158 193
158 257 0 41 12 43 63 9 134 -92 444 -258 587 -315 30 -12 80 -32 110 -45 58
-25 239 -85 254 -85 5 0 -18 28 -50 63 -80 83 -181 215 -235 305 l-43 73 -117
60 c-64 33 -132 70 -151 82 -19 12 -49 31 -68 41 -53 29 -287 193 -310 216 -3
3 -21 18 -40 34 -227 186 -524 568 -668 859 -62 125 -63 127 -125 163 -85 49
-196 133 -294 222 -46 41 -83 70 -83 66z"/>
<path d="M8209 3624 c-53 -55 -262 -214 -337 -257 -51 -28 -57 -36 -111 -146
-84 -170 -137 -252 -266 -416 -131 -166 -361 -407 -480 -504 -154 -126 -402
-281 -558 -349 -38 -17 -54 -32 -85 -82 -72 -120 -158 -235 -231 -312 -40 -43
-70 -78 -65 -78 20 0 165 50 289 100 210 83 387 174 602 307 57 35 105 63 107
63 3 0 8 -17 12 -37 13 -76 61 -157 136 -231 139 -136 213 -175 364 -193 284
-34 519 113 627 390 19 47 22 76 22 186 0 109 -4 141 -24 200 -62 190 -183
308 -386 375 -36 12 -65 24 -65 27 0 4 11 20 23 37 139 184 291 459 387 700
55 139 94 255 88 261 -2 3 -24 -16 -49 -41z"/>
</g>
</svg>
